<svg width="286" height="263" viewBox="0 0 286 263" fill="none" xmlns="http://www.w3.org/2000/svg">
<rect x="82.9111" y="2" width="64" height="167" transform="rotate(29.7671 82.9111 2)" fill="white"/>
<rect x="222" y="12" width="64" height="167" fill="#09A1FF"/>
<rect x="157.962" width="64" height="167" transform="rotate(22.149 157.962 0)" fill="white"/>
<path d="M55.5799 213.352H64.6039L78.7159 247H69.3559L59.8519 222.136L50.1559 247H41.1319L55.5799 213.352ZM49.7719 234.328H69.4039V240.952H49.7719V234.328ZM79.3609 213.352H88.1449V239.608H102.401V247H79.3609V213.352ZM101.08 213.352H129.928V220.456H119.848V247H111.064V220.456H101.08V213.352ZM163.427 213.352H189.971V220.264H172.211V226.696H188.243V233.56H172.211V240.088H190.451V247H163.427V213.352ZM204.361 213.352H213.385L227.497 247H218.137L208.633 222.136L198.937 247H189.913L204.361 213.352ZM198.553 234.328H218.185V240.952H198.553V234.328ZM242.638 213.352C245.294 213.352 247.71 213.768 249.886 214.6C252.094 215.4 253.982 216.552 255.55 218.056C257.15 219.528 258.382 221.288 259.246 223.336C260.11 225.384 260.542 227.656 260.542 230.152C260.542 232.68 260.094 234.968 259.198 237.016C258.334 239.064 257.102 240.84 255.502 242.344C253.902 243.848 251.982 245 249.742 245.8C247.502 246.6 245.022 247 242.302 247H228.142V213.352H242.638ZM242.878 239.992C244.158 239.992 245.326 239.768 246.382 239.32C247.438 238.84 248.35 238.168 249.118 237.304C249.918 236.44 250.526 235.416 250.942 234.232C251.358 233.016 251.566 231.688 251.566 230.248C251.566 228.776 251.342 227.448 250.894 226.264C250.446 225.048 249.806 224.008 248.974 223.144C248.174 222.248 247.214 221.576 246.094 221.128C245.006 220.648 243.79 220.408 242.446 220.408H236.926V239.992H242.878Z" fill="white"/>
<path d="M146.212 213.352C150.692 213.352 154.148 214.392 156.58 216.472C159.012 218.52 160.228 221.416 160.228 225.16C160.228 229.096 159.012 232.168 156.58 234.376C154.148 236.552 150.692 237.64 146.212 237.64H139.876V247H131.092V213.352H146.212ZM146.212 230.728C148.036 230.728 149.428 230.28 150.388 229.384C151.38 228.488 151.876 227.16 151.876 225.4C151.876 223.704 151.38 222.424 150.388 221.56C149.428 220.696 148.036 220.264 146.212 220.264H139.876V230.728H146.212ZM144.676 234.424H153.22L161.236 247H151.3L144.676 234.424Z" fill="#09A1FF"/>
</svg>
