<svg width="476" height="235" viewBox="0 0 476 235" fill="none" xmlns="http://www.w3.org/2000/svg">
<path d="M274.299 132.633C274.299 138.876 273.205 144.345 271.018 149.039C268.876 153.688 265.913 157.561 262.131 160.66C258.394 163.759 253.996 166.083 248.938 167.633C243.924 169.182 238.524 169.957 232.736 169.957C230.503 169.957 228.042 169.661 225.354 169.068C222.71 168.476 220.021 167.747 217.287 166.881C214.553 165.969 211.91 165.012 209.357 164.01C206.851 162.962 204.618 161.982 202.658 161.07L205.666 132.906C209.54 135.23 213.824 137.008 218.518 138.238C223.257 139.423 227.906 140.016 232.463 140.016C233.329 140.016 234.377 139.993 235.607 139.947C236.838 139.856 238 139.651 239.094 139.332C240.233 138.967 241.19 138.443 241.965 137.76C242.74 137.076 243.127 136.096 243.127 134.82C243.127 133.954 242.854 133.225 242.307 132.633C241.76 131.995 241.053 131.493 240.188 131.129C239.322 130.719 238.342 130.423 237.248 130.24C236.154 130.012 235.083 129.853 234.035 129.762C232.987 129.671 232.007 129.625 231.096 129.625C230.184 129.625 229.455 129.625 228.908 129.625C224.989 129.625 221.411 128.941 218.176 127.574C214.986 126.207 212.229 124.316 209.904 121.9C207.626 119.439 205.848 116.546 204.572 113.219C203.296 109.846 202.658 106.201 202.658 102.281C202.658 96.9036 203.729 92.0957 205.871 87.8574C208.059 83.5736 210.952 79.9505 214.553 76.9883C218.199 73.9805 222.368 71.679 227.062 70.084C231.757 68.4889 236.61 67.6914 241.623 67.6914C243.856 67.6914 246.158 67.7826 248.527 67.9648C250.897 68.1016 253.244 68.375 255.568 68.7852C257.938 69.1953 260.24 69.7194 262.473 70.3574C264.706 70.9954 266.825 71.793 268.83 72.75L266.232 100.504C263.133 99.4557 259.875 98.5898 256.457 97.9062C253.085 97.1771 249.781 96.8125 246.545 96.8125C245.952 96.8125 245.178 96.8353 244.221 96.8809C243.309 96.8809 242.329 96.9492 241.281 97.0859C240.279 97.1771 239.253 97.3366 238.205 97.5645C237.157 97.7923 236.223 98.1113 235.402 98.5215C234.582 98.8861 233.921 99.3874 233.42 100.025C232.919 100.663 232.691 101.415 232.736 102.281C232.782 103.284 233.146 104.104 233.83 104.742C234.559 105.335 235.471 105.813 236.564 106.178C237.704 106.497 238.934 106.725 240.256 106.861C241.623 106.998 242.967 107.089 244.289 107.135C245.611 107.135 246.841 107.135 247.98 107.135C249.12 107.089 250.054 107.112 250.783 107.203C254.429 107.431 257.71 108.206 260.627 109.527C263.544 110.849 266.005 112.604 268.01 114.791C270.061 116.979 271.61 119.599 272.658 122.652C273.752 125.66 274.299 128.987 274.299 132.633Z" fill="#ABE800"/>
<path d="M219.386 116.455H231.023V128.091H219.386V116.455ZM219.386 128.091H231.023V139.727H219.386V128.091ZM219.386 139.727H231.023V151.364H219.386V139.727ZM207.75 128.091H219.386V139.727H207.75V128.091ZM231.023 128.091H242.659V139.727H231.023V128.091Z" fill="#023446"/>
<path d="M242.386 81.4545H254.023V93.0909H242.386V81.4545ZM242.386 93.0909H254.023V104.727H242.386V93.0909ZM242.386 104.727H254.023V116.364H242.386V104.727ZM230.75 93.0909H242.386V104.727H230.75V93.0909ZM254.023 93.0909H265.659V104.727H254.023V93.0909Z" fill="#023446"/>
</svg>
